<?xml version="1.0" encoding="utf-8"?>
<!-- Generator: Adobe Illustrator 16.0.0, SVG Export Plug-In . SVG Version: 6.00 Build 0)  -->
<!DOCTYPE svg PUBLIC "-//W3C//DTD SVG 1.1//EN" "http://www.w3.org/Graphics/SVG/1.1/DTD/svg11.dtd">
<svg version="1.1" id="Layer_1" xmlns="http://www.w3.org/2000/svg" xmlns:xlink="http://www.w3.org/1999/xlink" x="0px" y="0px"
	 width="52.25px" height="55px" viewBox="-16.625 -17.5 52.25 55" enable-background="new -16.625 -17.5 52.25 55"
	 xml:space="preserve">
<path fill="#FFFFFF" d="M35.261,35.195L18.917,17.363c3.685-3.851,5.707-8.89,5.707-14.238c0-5.508-2.146-10.69-6.04-14.583
	C14.685-15.352,9.507-17.5,3.999-17.5c-5.508,0-10.69,2.146-14.583,6.042c-3.894,3.897-6.042,9.075-6.042,14.583
	s2.145,10.688,6.042,14.582c3.897,3.895,9.075,6.043,14.583,6.043c4.746,0,9.247-1.593,12.893-4.522l16.342,17.827
	c0.271,0.295,0.642,0.445,1.016,0.445c0.333,0,0.666-0.118,0.929-0.359c0.562-0.516,0.599-1.384,0.086-1.942L35.261,35.195z
	 M-13.879,3.125c0-9.856,8.019-17.875,17.875-17.875c9.855,0,17.875,8.019,17.875,17.875C21.871,12.98,13.852,21,3.996,21
	C-5.86,21-13.879,12.98-13.879,3.125z"/>
</svg>
